<svg id="Layer_1" data-name="Layer 1" xmlns="http://www.w3.org/2000/svg" width="296.27" height="296.27" viewBox="0 0 296.27 296.27"><title>arm-icon</title><path d="M273.25,125.16a23,23,0,0,0-22.8,19.93H194.26a46.1,46.1,0,0,0-10.82-26.79l39.88-39.88A23,23,0,1,0,218,73.16L178.17,113a46.11,46.11,0,0,0-25.11-10.86V45.5a23,23,0,1,0-8,.31V102a46.1,46.1,0,0,0-26.85,10.81L78.41,73a23,23,0,1,0-5.28,5.3L112.9,118a46.1,46.1,0,0,0-11,27h-56a23,23,0,1,0-.35,8H102a46.11,46.11,0,0,0,10.88,25.2L73.17,218a23,23,0,1,0,5.25,5.33l39.76-39.76a46.1,46.1,0,0,0,26.88,10.83v56.05a23,23,0,1,0,8,.34V194.23a46.11,46.11,0,0,0,25.13-10.89L218,223.13a23,23,0,1,0,5.32-5.26L183.46,178a46.11,46.11,0,0,0,10.65-24.94h56.66A23,23,0,1,0,273.25,125.16Z" fill="#3f3d3e"/></svg>