<svg id="Layer_1" data-name="Layer 1" xmlns="http://www.w3.org/2000/svg" width="320" height="320" viewBox="0 0 320 320"><title>123</title><circle cx="159.92" cy="160.05" r="50.03" fill="#fff"/><circle cx="160.04" cy="24.86" r="24.86" fill="#fff"/><circle cx="159.96" cy="295.14" r="24.86" fill="#fff"/><line x1="160" y1="38" x2="160" y2="282" fill="#fff"/><rect x="156" y="38" width="8" height="244" fill="#fff"/><circle cx="64.47" cy="64.41" r="24.86" transform="translate(-26.66 64.45) rotate(-45)" fill="#fff"/><circle cx="255.53" cy="255.59" r="24.86" transform="translate(-105.89 255.55) rotate(-45)" fill="#fff"/><line x1="73.29" y1="73.14" x2="246.25" y2="246.1" fill="#fff"/><rect x="155.73" y="37.31" width="8.08" height="244.61" transform="translate(-66.07 159.72) rotate(-45)" fill="#fff"/><circle cx="24.86" cy="159.96" r="24.86" fill="#fff"/><circle cx="295.14" cy="160.04" r="24.86" fill="#fff"/><line x1="37" y1="161" x2="281" y2="161" fill="#fff"/><rect x="37" y="157" width="244" height="9" fill="#fff"/><circle cx="64.41" cy="255.53" r="24.86" transform="translate(-161.82 120.39) rotate(-45)" fill="#fff"/><circle cx="255.59" cy="64.47" r="24.86" transform="translate(29.27 199.61) rotate(-45)" fill="#fff"/><line x1="73.29" y1="246.92" x2="246.25" y2="73.95" fill="#fff"/><rect x="37.46" y="156.4" width="244.61" height="8.08" transform="translate(-66.65 159.96) rotate(-45)" fill="#fff"/></svg>