<svg id="Layer_1" data-name="Layer 1" xmlns="http://www.w3.org/2000/svg" xmlns:xlink="http://www.w3.org/1999/xlink" width="443" height="361.72" viewBox="0 0 443 361.72"><defs><clipPath id="clip-path"><polygon points="442.63 361.73 0 361.73 0.37 0 443 0 442.63 361.73" fill="none"/></clipPath></defs><title>circles</title><g clip-path="url(#clip-path)"><path d="M186.8,188.65a83.39,83.39,0,1,1,83.39-83.39A83.48,83.48,0,0,1,186.8,188.65Zm0-135.45a52.07,52.07,0,1,0,52.07,52.07A52.12,52.12,0,0,0,186.8,53.2Z" fill="#fff"/><path d="M186.59,276.09c-93.85,0-170.19-76.35-170.19-170.19S92.74-64.29,186.59-64.29,356.78,12.05,356.78,105.9,280.43,276.09,186.59,276.09Zm0-309.07C110-33,47.72,29.33,47.72,105.9S110,244.77,186.59,244.77s138.87-62.3,138.87-138.87S263.16-33,186.59-33Z" fill="#fff"/><path d="M186.59,359A253.74,253.74,0,0,1-67.16,105.27,253.74,253.74,0,0,1,186.59-148.48,253.74,253.74,0,0,1,440.33,105.27,253.74,253.74,0,0,1,186.59,359Zm0-476.17A222.42,222.42,0,0,0-35.84,105.27,222.42,222.42,0,0,0,186.59,327.69,222.42,222.42,0,0,0,409,105.27,222.42,222.42,0,0,0,186.59-117.16Z" fill="#fff"/></g></svg>