<svg id="Layer_1" data-name="Layer 1" xmlns="http://www.w3.org/2000/svg" width="316" height="316" viewBox="0 0 316 316"><title>position</title><path d="M158.13,209.92A51.92,51.92,0,1,1,210.05,158,52,52,0,0,1,158.13,209.92Zm0-84.34A32.42,32.42,0,1,0,190.55,158,32.46,32.46,0,0,0,158.13,125.58Z" fill="#3a3839"/><path d="M158,264.37a106,106,0,1,1,106-106A106.1,106.1,0,0,1,158,264.37Zm0-192.45a86.47,86.47,0,1,0,86.47,86.47A86.57,86.57,0,0,0,158,71.92Z" fill="#3a3839"/><path d="M158,316A158,158,0,0,1,46.28,46.28,158,158,0,0,1,269.72,269.72,157,157,0,0,1,158,316Zm0-296.5A138.5,138.5,0,0,0,60.07,255.93,138.5,138.5,0,0,0,255.93,60.07,137.59,137.59,0,0,0,158,19.5Z" fill="#3a3839"/></svg>