<svg id="Lager_1" data-name="Lager 1" xmlns="http://www.w3.org/2000/svg" width="273.46" height="19.21" viewBox="0 0 273.46 19.21"><title>logotype</title><path d="M8.84,14.88H8.89V2.16h3.43V20.73H8.06l-4.58-13H3.43v13H0V2.16H4.32Z" transform="translate(0 -1.8)" fill="#453b36"/><path d="M14.73,7.56a8.62,8.62,0,0,1,.86-3.06,4.81,4.81,0,0,1,1.91-2,6.75,6.75,0,0,1,3.35-.71,6.75,6.75,0,0,1,3.35.71,4.81,4.81,0,0,1,1.91,2A8.62,8.62,0,0,1,27,7.56a35.87,35.87,0,0,1,.19,3.89,35.77,35.77,0,0,1-.19,3.9,8.58,8.58,0,0,1-.86,3,4.56,4.56,0,0,1-1.91,2,7.06,7.06,0,0,1-3.35.68,7.06,7.06,0,0,1-3.35-.68,4.56,4.56,0,0,1-1.91-2,8.58,8.58,0,0,1-.86-3,35.77,35.77,0,0,1-.19-3.9A35.87,35.87,0,0,1,14.73,7.56Zm3.64,7.07a8.85,8.85,0,0,0,.36,2.13,2.37,2.37,0,0,0,.78,1.2,2.19,2.19,0,0,0,1.34.38A2.19,2.19,0,0,0,22.19,18a2.37,2.37,0,0,0,.78-1.2,8.87,8.87,0,0,0,.36-2.13q0.09-1.31.09-3.18T23.33,8.27A9,9,0,0,0,23,6.14a2.37,2.37,0,0,0-.78-1.21,2.19,2.19,0,0,0-1.34-.38,2.19,2.19,0,0,0-1.34.38,2.37,2.37,0,0,0-.78,1.21,9,9,0,0,0-.36,2.13q-0.09,1.3-.09,3.17T18.37,14.63Z" transform="translate(0 -1.8)" fill="#453b36"/><path d="M36.3,2.16a5.22,5.22,0,0,1,3.64,1.18,4.63,4.63,0,0,1,1.3,3.6A5.59,5.59,0,0,1,40.48,10a3.49,3.49,0,0,1-2.34,1.52v0.05a3.39,3.39,0,0,1,2.05.91A3.85,3.85,0,0,1,41,14.75q0.05,0.52.08,1.13t0.05,1.37q0.05,1.48.16,2.26A1.45,1.45,0,0,0,42,20.57v0.16H37.91a2,2,0,0,1-.36-0.9,10.06,10.06,0,0,1-.1-1.05l-0.1-3.56a2.93,2.93,0,0,0-.55-1.72,2,2,0,0,0-1.66-.62h-2v7.85H29.38V2.16H36.3Zm-1.61,8.11a3.06,3.06,0,0,0,2.08-.64,2.73,2.73,0,0,0,.73-2.14,2.29,2.29,0,0,0-2.6-2.57H33.12v5.36h1.56Z" transform="translate(0 -1.8)" fill="#453b36"/><path d="M50.15,2.16a6.71,6.71,0,0,1,3.15.64,4.54,4.54,0,0,1,1.86,1.82,8.11,8.11,0,0,1,.9,2.85,26.91,26.91,0,0,1,.23,3.72,26.4,26.4,0,0,1-.3,4.25,8.12,8.12,0,0,1-1,3A4.5,4.5,0,0,1,53,20.16a7.32,7.32,0,0,1-3.09.57H44V2.16h6.14ZM49.43,18A3.22,3.22,0,0,0,51,17.63,2.31,2.31,0,0,0,52,16.51a6.54,6.54,0,0,0,.47-2.05q0.12-1.27.12-3.17,0-1.58-.1-2.78a6.87,6.87,0,0,0-.43-2,2.48,2.48,0,0,0-1-1.2,3.16,3.16,0,0,0-1.7-.4H47.76V18h1.66Z" transform="translate(0 -1.8)" fill="#453b36"/><path d="M58.94,2.16h3.74V20.73H58.94V2.16Z" transform="translate(0 -1.8)" fill="#453b36"/><path d="M72.92,5.48a1.8,1.8,0,0,0-1.75-.92A1.75,1.75,0,0,0,70,4.93a2.49,2.49,0,0,0-.72,1.22,10.4,10.4,0,0,0-.36,2.21q-0.1,1.37-.1,3.34A32.36,32.36,0,0,0,69,15.11a7.56,7.56,0,0,0,.44,2,1.84,1.84,0,0,0,.75,1,2.17,2.17,0,0,0,1.05.25,2.48,2.48,0,0,0,.92-0.17,1.56,1.56,0,0,0,.74-0.68,4.39,4.39,0,0,0,.49-1.43,13.07,13.07,0,0,0,.18-2.43H77.3a16.79,16.79,0,0,1-.23,2.86,6.49,6.49,0,0,1-.87,2.37,4.33,4.33,0,0,1-1.79,1.59,6.8,6.8,0,0,1-3,.57A7.06,7.06,0,0,1,68,20.34a4.56,4.56,0,0,1-1.91-2,8.58,8.58,0,0,1-.86-3,35.64,35.64,0,0,1-.2-3.9,35.74,35.74,0,0,1,.2-3.89,8.62,8.62,0,0,1,.86-3.06,4.81,4.81,0,0,1,1.91-2A6.75,6.75,0,0,1,71.4,1.8a6.47,6.47,0,0,1,3.16.65A4.42,4.42,0,0,1,76.28,4.1,5.73,5.73,0,0,1,77,6.26a17.78,17.78,0,0,1,.14,2.17H73.4A6.73,6.73,0,0,0,72.92,5.48Z" transform="translate(0 -1.8)" fill="#453b36"/><path d="M91.93,2.16a9.06,9.06,0,0,1,2.12.23,4.34,4.34,0,0,1,1.68.78,3.6,3.6,0,0,1,1.09,1.46,5.69,5.69,0,0,1,.39,2.24,4.64,4.64,0,0,1-.7,2.59,3.52,3.52,0,0,1-2.11,1.47V11a3.68,3.68,0,0,1,2.47,1.33,4.59,4.59,0,0,1,.91,3,7.43,7.43,0,0,1-.29,2.08,4.24,4.24,0,0,1-1,1.73,4.88,4.88,0,0,1-1.79,1.18,7.42,7.42,0,0,1-2.74.44H85.67V2.16h6.27ZM90.48,9.78a3.7,3.7,0,0,0,2.28-.56,2.25,2.25,0,0,0,.71-1.88,2.33,2.33,0,0,0-.65-1.87,3.17,3.17,0,0,0-2.05-.55H89.41V9.78h1.07ZM90.87,18a3.66,3.66,0,0,0,2.18-.6,2.55,2.55,0,0,0,.83-2.21,3.52,3.52,0,0,0-.22-1.34,2.24,2.24,0,0,0-.6-0.86,2.16,2.16,0,0,0-.9-0.46A4.76,4.76,0,0,0,91,12.38H89.41V18h1.46Z" transform="translate(0 -1.8)" fill="#453b36"/><path d="M107,2.16a5.22,5.22,0,0,1,3.64,1.18,4.64,4.64,0,0,1,1.3,3.6,5.6,5.6,0,0,1-.75,3.05,3.49,3.49,0,0,1-2.34,1.52v0.05a3.39,3.39,0,0,1,2.05.91,3.86,3.86,0,0,1,.81,2.26q0.05,0.52.08,1.13t0.05,1.37q0.05,1.48.16,2.26a1.45,1.45,0,0,0,.68,1.07v0.16h-4.06a2,2,0,0,1-.36-0.9,9.93,9.93,0,0,1-.1-1.05l-0.1-3.56a2.93,2.93,0,0,0-.55-1.72,2,2,0,0,0-1.66-.62h-2v7.85h-3.74V2.16H107Zm-1.61,8.11a3.06,3.06,0,0,0,2.08-.64,2.73,2.73,0,0,0,.73-2.14,2.29,2.29,0,0,0-2.6-2.57h-1.77v5.36h1.56Z" transform="translate(0 -1.8)" fill="#453b36"/><path d="M122.82,2.16l4.91,18.56h-3.9L123,16.8H118l-0.86,3.93h-3.9l4.91-18.56h4.63Zm-0.49,11.57-1.79-8.35h-0.05l-1.79,8.35h3.64Z" transform="translate(0 -1.8)" fill="#453b36"/><path d="M137.88,14.88h0.05V2.16h3.43V20.73H137.1l-4.58-13h-0.05v13H129V2.16h4.32Z" transform="translate(0 -1.8)" fill="#453b36"/><path d="M150.28,2.16a6.7,6.7,0,0,1,3.15.64,4.53,4.53,0,0,1,1.86,1.82,8.1,8.1,0,0,1,.9,2.85,27,27,0,0,1,.23,3.72,26.4,26.4,0,0,1-.3,4.25,8.12,8.12,0,0,1-1,3,4.5,4.5,0,0,1-1.95,1.74,7.32,7.32,0,0,1-3.09.57h-5.9V2.16h6.14ZM149.55,18a3.22,3.22,0,0,0,1.59-.34,2.31,2.31,0,0,0,.95-1.12,6.5,6.5,0,0,0,.47-2.05q0.12-1.27.12-3.17,0-1.58-.1-2.78a6.89,6.89,0,0,0-.43-2,2.48,2.48,0,0,0-1-1.2,3.16,3.16,0,0,0-1.7-.4h-1.59V18h1.66Z" transform="translate(0 -1.8)" fill="#453b36"/><path d="M171.68,2.16a5.4,5.4,0,0,1,2.41.48,4.38,4.38,0,0,1,1.57,1.26,4.93,4.93,0,0,1,.86,1.78,8.11,8.11,0,0,1,.26,2,6.66,6.66,0,0,1-.43,2.5,4.52,4.52,0,0,1-1.2,1.74,5,5,0,0,1-1.86,1,8.15,8.15,0,0,1-2.42.34h-2v7.41h-3.74V2.16h6.55Zm-1.14,8.4a2.47,2.47,0,0,0,1.81-.68A2.84,2.84,0,0,0,173,7.78a3.29,3.29,0,0,0-.6-2.13,2.45,2.45,0,0,0-2-.73h-1.56v5.64h1.66Z" transform="translate(0 -1.8)" fill="#453b36"/><path d="M178.42,7.56a8.61,8.61,0,0,1,.86-3.06,4.81,4.81,0,0,1,1.91-2,8.23,8.23,0,0,1,6.71,0,4.81,4.81,0,0,1,1.91,2,8.61,8.61,0,0,1,.86,3.06,35.87,35.87,0,0,1,.19,3.89,35.78,35.78,0,0,1-.19,3.9,8.57,8.57,0,0,1-.86,3,4.55,4.55,0,0,1-1.91,2,8.66,8.66,0,0,1-6.71,0,4.55,4.55,0,0,1-1.91-2,8.57,8.57,0,0,1-.86-3,35.77,35.77,0,0,1-.2-3.9A35.86,35.86,0,0,1,178.42,7.56Zm3.64,7.07a8.85,8.85,0,0,0,.36,2.13,2.36,2.36,0,0,0,.78,1.2,2.57,2.57,0,0,0,2.68,0,2.37,2.37,0,0,0,.78-1.2,8.89,8.89,0,0,0,.36-2.13q0.09-1.31.09-3.18T187,8.27a9.06,9.06,0,0,0-.36-2.13,2.38,2.38,0,0,0-.78-1.21,2.56,2.56,0,0,0-2.68,0,2.37,2.37,0,0,0-.78,1.21,9,9,0,0,0-.36,2.13Q182,9.57,182,11.45T182.06,14.63Z" transform="translate(0 -1.8)" fill="#453b36"/><path d="M196.09,15.48a6.2,6.2,0,0,0,.1,1.18,2.05,2.05,0,0,0,.39.9,1.91,1.91,0,0,0,.77.57,3.06,3.06,0,0,0,1.21.21,2.39,2.39,0,0,0,1.55-.56A2.1,2.1,0,0,0,200.8,16a3.11,3.11,0,0,0-.17-1.08,2.13,2.13,0,0,0-.56-0.82,4,4,0,0,0-1-.66,14.84,14.84,0,0,0-1.57-.61,13.4,13.4,0,0,1-2.16-.91,5.81,5.81,0,0,1-1.52-1.16,4.13,4.13,0,0,1-.9-1.53,6.47,6.47,0,0,1-.29-2,5.19,5.19,0,0,1,1.53-4.11,6.15,6.15,0,0,1,4.21-1.35,9.12,9.12,0,0,1,2.3.27,4.82,4.82,0,0,1,1.82.88,4.14,4.14,0,0,1,1.2,1.56,5.49,5.49,0,0,1,.43,2.27V7.31h-3.59a3.73,3.73,0,0,0-.47-2,1.72,1.72,0,0,0-1.56-.72,2.6,2.6,0,0,0-1,.18,1.76,1.76,0,0,0-.66.48,1.66,1.66,0,0,0-.34.69,3.54,3.54,0,0,0-.09.81,2.68,2.68,0,0,0,.36,1.44,3.26,3.26,0,0,0,1.56,1.08l2.89,1.25a8.83,8.83,0,0,1,1.74,1A4.75,4.75,0,0,1,204,12.55a3.66,3.66,0,0,1,.56,1.29,7.24,7.24,0,0,1,.16,1.56,5.11,5.11,0,0,1-1.7,4.28A7.49,7.49,0,0,1,198.25,21q-3.17,0-4.54-1.38a5.38,5.38,0,0,1-1.37-4V14.93h3.74v0.55Z" transform="translate(0 -1.8)" fill="#453b36"/><path d="M206.75,2.16h3.74V20.73h-3.74V2.16Z" transform="translate(0 -1.8)" fill="#453b36"/><path d="M224.14,5.23h-4.06v15.5h-3.74V5.23h-4.06V2.16h11.86V5.23Z" transform="translate(0 -1.8)" fill="#453b36"/><path d="M225.94,2.16h3.74V20.73h-3.74V2.16Z" transform="translate(0 -1.8)" fill="#453b36"/><path d="M232.27,7.56a8.63,8.63,0,0,1,.86-3.06,4.81,4.81,0,0,1,1.91-2,8.23,8.23,0,0,1,6.71,0,4.81,4.81,0,0,1,1.91,2,8.61,8.61,0,0,1,.86,3.06,35.87,35.87,0,0,1,.19,3.89,35.78,35.78,0,0,1-.19,3.9,8.57,8.57,0,0,1-.86,3,4.55,4.55,0,0,1-1.91,2,8.66,8.66,0,0,1-6.71,0,4.56,4.56,0,0,1-1.91-2,8.59,8.59,0,0,1-.86-3,35.77,35.77,0,0,1-.2-3.9A35.86,35.86,0,0,1,232.27,7.56Zm3.64,7.07a8.8,8.8,0,0,0,.36,2.13,2.36,2.36,0,0,0,.78,1.2,2.57,2.57,0,0,0,2.68,0,2.37,2.37,0,0,0,.78-1.2,8.85,8.85,0,0,0,.36-2.13q0.09-1.31.09-3.18t-0.09-3.17a9,9,0,0,0-.36-2.13,2.38,2.38,0,0,0-.78-1.21,2.56,2.56,0,0,0-2.68,0,2.37,2.37,0,0,0-.78,1.21,9,9,0,0,0-.36,2.13q-0.09,1.3-.09,3.17T235.91,14.63Z" transform="translate(0 -1.8)" fill="#453b36"/><path d="M255.76,14.88h0.05V2.16h3.43V20.73H255l-4.58-13h-0.05v13h-3.43V2.16h4.32Z" transform="translate(0 -1.8)" fill="#453b36"/><path d="M264.86,15.48a6.2,6.2,0,0,0,.1,1.18,2.05,2.05,0,0,0,.39.9,1.9,1.9,0,0,0,.77.57,3.06,3.06,0,0,0,1.21.21,2.39,2.39,0,0,0,1.55-.56,2.1,2.1,0,0,0,.69-1.73A3.11,3.11,0,0,0,269.4,15a2.14,2.14,0,0,0-.56-0.82,4,4,0,0,0-1-.66,14.73,14.73,0,0,0-1.57-.61,13.4,13.4,0,0,1-2.16-.91,5.81,5.81,0,0,1-1.52-1.16,4.14,4.14,0,0,1-.9-1.53,6.44,6.44,0,0,1-.29-2,5.19,5.19,0,0,1,1.53-4.11,6.15,6.15,0,0,1,4.21-1.35,9.12,9.12,0,0,1,2.3.27,4.82,4.82,0,0,1,1.82.88,4.13,4.13,0,0,1,1.2,1.56,5.49,5.49,0,0,1,.43,2.27V7.31h-3.59a3.72,3.72,0,0,0-.47-2,1.72,1.72,0,0,0-1.56-.72,2.6,2.6,0,0,0-1,.18,1.76,1.76,0,0,0-.66.48,1.66,1.66,0,0,0-.34.69,3.54,3.54,0,0,0-.09.81,2.69,2.69,0,0,0,.36,1.44A3.27,3.27,0,0,0,267,9.24l2.89,1.25a8.84,8.84,0,0,1,1.74,1,4.77,4.77,0,0,1,1.08,1.09,3.64,3.64,0,0,1,.56,1.29,7.18,7.18,0,0,1,.16,1.56,5.11,5.11,0,0,1-1.7,4.28A7.49,7.49,0,0,1,267,21q-3.17,0-4.54-1.38a5.38,5.38,0,0,1-1.37-4V14.93h3.74v0.55Z" transform="translate(0 -1.8)" fill="#453b36"/></svg>