<?xml version="1.0" encoding="utf-8"?>
<!-- Generator: Adobe Illustrator 19.2.0, SVG Export Plug-In . SVG Version: 6.00 Build 0)  -->
<svg version="1.1" id="Lager_1" xmlns="http://www.w3.org/2000/svg" xmlns:xlink="http://www.w3.org/1999/xlink" x="0px" y="0px"
	 width="1453.6px" height="468.3px" viewBox="0 0 1453.6 468.3" style="enable-background:new 0 0 1453.6 468.3;"
	 xml:space="preserve">
<style type="text/css">
	.st0{opacity:0.8;}
	.st1{clip-path:url(#SVGID_1_);}
	.st2{fill:none;stroke:#FFFFFF;stroke-width:1.6877;stroke-linecap:round;stroke-linejoin:round;stroke-miterlimit:10;}
	.st3{opacity:0.15;fill:#979797;}
	.st4{opacity:0.15;fill:#B7B7B7;}
	.st5{opacity:0.15;fill:#ABABAB;}
	
		.st6{opacity:0.15;fill:none;stroke:#949494;stroke-width:58.0948;stroke-linecap:round;stroke-linejoin:round;stroke-miterlimit:10;}
	.st7{opacity:0.15;}
	.st8{fill:#8F8F8F;}
</style>
<g class="st0">
	<defs>
		<rect id="SVGID_3_" class="st0" width="1453.6" height="468.3"/>
	</defs>
	<clipPath id="SVGID_1_">
		<use xlink:href="#SVGID_3_"  style="overflow:visible;"/>
	</clipPath>
	<g class="st1">
		<polyline id="XMLID_81_" class="st2" points="519.8,409.3 530.3,417.9 520,426.8 		"/>
		<g>
			<path class="st3" d="M755.6,171.7H577c-16,0-29-13-29-29s13-29,29-29h178.6c16,0,29,13,29,29S771.6,171.7,755.6,171.7z"/>
			<path class="st4" d="M755.6,432.4H577c-16,0-29-13-29-29c0-16,13-29,29-29h178.6c16,0,29,13,29,29
				C784.6,419.4,771.6,432.4,755.6,432.4z"/>
			<path class="st5" d="M726.4,301.4H577c-16,0-29-13-29-29s13-29,29-29h149.4c16,0,29,13,29,29S742.4,301.4,726.4,301.4z"/>
			<path class="st5" d="M1190.2,432.9c-16,0-29-13-29-29V141.2c0-16,13-29,29-29s29,13,29,29v262.7
				C1219.3,419.9,1206.3,432.9,1190.2,432.9z"/>
			<path class="st3" d="M1295.3,339.6c-16,0-29-13-29-29V141.2c0-16,13-29,29-29c16,0,29,13,29,29v169.4
				C1324.3,326.6,1311.3,339.6,1295.3,339.6z"/>
			<path class="st4" d="M1075.7,434.2C1075.6,434.2,1075.6,434.2,1075.7,434.2c-16.1,0-29.1-13.1-29-29.1l0.5-263.9
				c0-16,13-29,29-29c0,0,0,0,0.1,0c16,0,29,13.1,29,29.1l-0.5,263.9C1104.7,421.2,1091.7,434.2,1075.7,434.2z"/>
			<path class="st3" d="M854.7,434.2C854.6,434.2,854.6,434.2,854.7,434.2c-16.1,0-29.1-13.1-29-29.1l0.5-263.9c0-16,13-29,29-29
				c0,0,0,0,0.1,0c16,0,29,13.1,29,29.1l-0.5,263.9C883.7,421.2,870.7,434.2,854.7,434.2z"/>
			<path class="st5" d="M1075.9,433.9c-8.3,0-16.5-3.5-22.3-10.4L832.9,159.8c-10.3-12.3-8.7-30.6,3.6-40.9
				c12.3-10.3,30.6-8.7,40.9,3.6l220.7,263.7c10.3,12.3,8.7,30.6-3.6,40.9C1089.1,431.7,1082.5,433.9,1075.9,433.9z"/>
			<path class="st4" d="M1404.7,436.2c-34.2,0-67.1-12-92.7-33.7c-26.5-22.5-42.7-53.6-45.6-87.4c-1.4-16,10.5-30,26.5-31.4
				c16-1.4,30.1,10.5,31.4,26.5c3.3,38.1,38.6,67.9,80.4,67.9c44.9,0,77-27.6,81.6-70.4c1.7-15.9,16.1-27.5,32-25.8
				c15.9,1.7,27.5,16.1,25.8,32c-3.9,35.8-19.5,66.4-45.1,88.7C1473.7,424.6,1441.1,436.2,1404.7,436.2z"/>
			<path class="st4" d="M-193.5,302.2h-99c-16,0-29-13-29-29c0-16,13-29,29-29h99c16,0,29,13,29,29
				C-164.4,289.2-177.4,302.2-193.5,302.2z"/>
			<path class="st3" d="M-192.4,203.2c-7.4,0-14.7-2.8-20.4-8.4c-19.9-19.6-46.2-30.4-74.1-30.4c-16,0-29-13-29-29s13-29,29-29
				c43.3,0,84.1,16.7,114.9,47.1c11.4,11.3,11.6,29.6,0.3,41.1C-177.4,200.4-184.9,203.2-192.4,203.2z"/>
			<path class="st3" d="M-287.6,434.5c-90.3,0-163.7-73.4-163.7-163.7c0-16,13-29,29-29s29,13,29,29c0,58.2,47.4,105.6,105.6,105.6
				c16,0,29,13,29,29S-271.6,434.5-287.6,434.5z"/>
			<path class="st5" d="M-287.7,434.5c-16,0-29-13-29-29c0-16,13-29,29-29c26.8,0,54.3-10.5,73.6-28.2c11.8-10.8,30.2-10.1,41,1.8
				c10.8,11.8,10.1,30.2-1.8,41C-204.9,418.7-246.1,434.5-287.7,434.5z"/>
			<path class="st4" d="M29,434.5c-16,0-29-13-29-29s13-29,29-29c60.6,0,109.9-49.3,109.9-109.9c0-16,13-29,29-29s29,13,29,29
				C197,359.2,121.7,434.5,29,434.5z"/>
			<path class="st3" d="M-109.9,295.1c-16,0-29-13-29-29c0-92.6,75.4-168,168-168c16,0,29,13,29,29s-13,29-29,29
				c-60.6,0-109.9,49.3-109.9,109.9C-80.9,282-93.9,295.1-109.9,295.1z"/>
			<path class="st5" d="M168,295.1c-16,0-29-13-29-29c0-60.6-49.3-109.9-109.9-109.9c-16,0-29-13-29-29s13-29,29-29
				c92.6,0,168,75.4,168,168C197,282,184,295.1,168,295.1z"/>
			<path class="st5" d="M-193.2,396.5c-16,0-29-13-29-29v-94c0-16,13-29,29-29s29,13,29,29v94C-164.1,383.5-177.1,396.5-193.2,396.5
				z"/>
			<path class="st4" d="M478.4,396.5L478.4,396.5c-16,0-29-13-29-29l0-65.3h-71.2c-16,0-29-13-29-29c0-16,13-29,29-29h100.2
				c7.7,0,15.1,3.1,20.5,8.5c5.4,5.4,8.5,12.8,8.5,20.5l0,94.3C507.4,383.5,494.4,396.5,478.4,396.5z"/>
			<path class="st3" d="M478.2,203.2c-7.4,0-14.7-2.8-20.4-8.4c-19.9-19.6-46.2-30.4-74.1-30.4c-16,0-29-13-29-29s13-29,29-29
				c43.3,0,84.1,16.7,114.9,47.1c11.4,11.3,11.6,29.6,0.3,41.1C493.2,200.4,485.7,203.2,478.2,203.2z"/>
			<path class="st5" d="M383,434.5c-90.3,0-163.7-73.4-163.7-163.7c0-16,13-29,29-29s29,13,29,29c0,58.2,47.4,105.6,105.6,105.6
				c16,0,29,13,29,29S399,434.5,383,434.5z"/>
			<path class="st5" d="M383,434.5c-16,0-29-13-29-29s13-29,29-29c26.8,0,54.3-10.5,73.6-28.2c11.8-10.8,30.2-10.1,41,1.8
				c10.8,11.8,10.1,30.2-1.8,41C465.7,418.7,424.6,434.5,383,434.5z"/>
			<path class="st5" d="M1768.8,186.6c-5.8,0-11.7-1.7-16.8-5.4c-10.5-7.5-40.2-18.6-68.4-20c-16-0.8-28.4-14.4-27.6-30.4
				c0.8-16,14.4-28.4,30.4-27.6c39.5,1.9,79.8,16.9,99.2,30.7c13.1,9.3,16.1,27.4,6.8,40.5C1786.8,182.3,1777.9,186.6,1768.8,186.6z
				"/>
			<path class="st5" d="M1782.3,368.9c-14.9,0-27.6-11.5-28.9-26.6c-1-12-5.6-24.4-31.9-34.4c-11.1-4.2-23.8-7.2-37.3-10.3
				c-2.1-0.5-4.2-1-6.4-1.5c-15.6-3.7-25.3-19.3-21.6-34.9c3.7-15.6,19.3-25.3,34.9-21.7c2.1,0.5,4.1,1,6.2,1.4
				c14.8,3.4,30.1,7,44.9,12.6c18.7,7.1,33.3,16.3,44.5,27.9c14.5,15.1,22.8,34,24.7,56c1.3,16-10.5,30-26.5,31.4
				C1783.9,368.9,1783.1,368.9,1782.3,368.9z"/>
			<path class="st4" d="M1685.3,438.4c-0.8,0-1.6,0-2.4-0.1c-37.5-3-79.4-17.9-112.1-39.9c-13.3-8.9-16.9-27-7.9-40.3
				c8.9-13.3,27-16.9,40.3-7.9c29.2,19.6,62.7,28.5,84.4,30.2c16,1.3,27.9,15.3,26.6,31.3C1713,426.9,1700.3,438.4,1685.3,438.4z"/>
			<path class="st3" d="M1683,296.4c-2.2,0-4.5-0.3-6.7-0.8c-8.1-1.9-17.7-4.3-27.4-7.3c-23.7-7.5-41.4-18.3-54.2-32.9
				c-14.8-17.1-21.8-38.4-20.8-63.3c1.1-27.9,13.9-52.2,35.9-68.3c17.9-13.1,41.5-20.5,66.5-20.8c2.5,0,5,0,7.5,0.1
				c16,0.5,28.6,13.9,28.1,29.9c-0.5,15.7-13.4,28.1-29,28.1c-0.3,0-0.6,0-0.9,0c-1.7-0.1-3.4-0.1-5,0c-12.8,0.2-24.8,3.7-32.9,9.6
				c-7.9,5.8-11.8,13.3-12.2,23.8c-0.5,13.2,1.6,28.1,34.4,38.4c7.9,2.5,16.2,4.5,23.2,6.2c15.6,3.7,25.3,19.3,21.6,35
				C1708.1,287.4,1696.1,296.4,1683,296.4z"/>
			<path class="st6" d="M1684.9,267.3"/>
			<g class="st7">
				<path class="st8" d="M1797.2,74.2c0-4.6,0.9-8.8,2.6-12.7c1.7-3.9,4-7.3,6.9-10.1c2.9-2.8,6.3-5.1,10.2-6.7
					c3.9-1.6,8-2.4,12.4-2.4c4.3,0,8.4,0.8,12.3,2.4c3.9,1.6,7.3,3.8,10.2,6.7c2.9,2.8,5.2,6.1,6.9,10c1.7,3.8,2.6,8,2.6,12.5
					c0,4.6-0.9,8.8-2.6,12.7c-1.7,3.9-4,7.3-6.9,10.1c-2.9,2.8-6.3,5.1-10.2,6.7c-3.9,1.6-8,2.4-12.3,2.4c-4.4,0-8.5-0.8-12.4-2.4
					c-3.9-1.6-7.3-3.8-10.2-6.7c-2.9-2.8-5.2-6.1-6.9-10C1798,82.9,1797.2,78.7,1797.2,74.2z M1802.3,74.2c0,3.8,0.7,7.4,2.1,10.6
					c1.4,3.3,3.3,6.1,5.8,8.5c2.4,2.4,5.3,4.3,8.5,5.7c3.2,1.4,6.7,2.1,10.5,2.1c3.8,0,7.3-0.7,10.5-2.1c3.2-1.4,6.1-3.3,8.5-5.8
					c2.4-2.4,4.4-5.3,5.8-8.7c1.4-3.3,2.1-6.9,2.1-10.8c0-3.8-0.7-7.4-2.1-10.7c-1.4-3.3-3.3-6.2-5.8-8.6c-2.4-2.4-5.3-4.3-8.5-5.7
					c-3.2-1.4-6.7-2.1-10.5-2.1c-3.8,0-7.3,0.7-10.5,2.1c-3.2,1.4-6.1,3.3-8.5,5.7c-2.4,2.4-4.4,5.3-5.8,8.6
					C1803,66.7,1802.3,70.3,1802.3,74.2z M1817.3,55.9h13.5c4.4,0,7.7,0.8,9.8,2.5c2.1,1.7,3.2,4.4,3.2,8.1c0,3.3-0.9,5.7-2.8,7.3
					c-1.9,1.5-4.2,2.4-6.9,2.7l10.6,16.2h-5.6L1829,76.9h-6.6v15.8h-5.1V55.9z M1822.5,72.3h6.3c1.3,0,2.5,0,3.7-0.1
					c1.2-0.1,2.3-0.3,3.2-0.7c0.9-0.4,1.7-1,2.2-1.8s0.8-1.9,0.8-3.4c0-1.3-0.2-2.3-0.7-3c-0.5-0.8-1.1-1.4-1.9-1.8
					c-0.8-0.4-1.7-0.7-2.7-0.8c-1-0.1-2-0.2-2.9-0.2h-7.9V72.3z"/>
			</g>
		</g>
	</g>
</g>
</svg>
