<?xml version="1.0" encoding="utf-8"?>
<!-- Generator: Adobe Illustrator 19.2.0, SVG Export Plug-In . SVG Version: 6.00 Build 0)  -->
<svg version="1.1" id="Lager_1" xmlns="http://www.w3.org/2000/svg" xmlns:xlink="http://www.w3.org/1999/xlink" x="0px" y="0px"
	 width="159.8px" height="28.7px" viewBox="0 0 159.8 28.7" style="enable-background:new 0 0 159.8 28.7;" xml:space="preserve">
<style type="text/css">
	.st0{font-family:'ProximaNova-Regular';}
	.st1{font-size:1.1144px;}
	.st2{fill:none;stroke:#979797;stroke-width:4.0118;stroke-linecap:round;stroke-linejoin:round;stroke-miterlimit:10;}
	.st3{fill:none;stroke:#B7B7B7;stroke-width:4.0118;stroke-linecap:round;stroke-linejoin:round;stroke-miterlimit:10;}
	.st4{fill:none;stroke:#ABABAB;stroke-width:4.0118;stroke-linecap:round;stroke-linejoin:round;stroke-miterlimit:10;}
	
		.st5{opacity:0.94;fill:none;stroke:#949494;stroke-width:4.0118;stroke-linecap:round;stroke-linejoin:round;stroke-miterlimit:10;}
	.st6{fill:#8B8B8B;}
	.st7{fill:#8C8C8C;}
	.st8{fill:#9C9C9C;}
	.st9{fill:#A4A4A4;}
	.st10{fill:#8F8F8F;}
	.st11{opacity:0.94;fill:#8F8F8F;}
	.st12{font-family:'Avenir-Book';}
	.st13{font-size:5.8979px;}
</style>
<g>
	<text transform="matrix(1 0 0 1 138.1508 9.3463)" class="st0 st1"> </text>
	<line class="st2" x1="71" y1="8.3" x2="83.3" y2="8.3"/>
	<line class="st3" x1="71" y1="26.3" x2="83.3" y2="26.3"/>
	<line class="st4" x1="71" y1="17.3" x2="81.3" y2="17.3"/>
	<line class="st4" x1="113.4" y1="26.4" x2="113.4" y2="8.2"/>
	<line class="st2" x1="120.6" y1="19.9" x2="120.6" y2="8.2"/>
	<line class="st3" x1="105.4" y1="26.4" x2="105.5" y2="8.2"/>
	<line class="st2" x1="90.2" y1="26.4" x2="90.2" y2="8.2"/>
	<line class="st4" x1="90.2" y1="8.2" x2="105.5" y2="26.4"/>
	<path class="st3" d="M120.6,20c0.3,3.8,3.7,6.5,7.6,6.5c4.1,0,7.2-2.7,7.6-6.6"/>
	<line class="st3" x1="11" y1="17.3" x2="17.8" y2="17.3"/>
	<path class="st2" d="M17.9,10.5c-1.7-1.7-4-2.7-6.5-2.7"/>
	<path class="st2" d="M2,17.2c0,5.1,4.2,9.3,9.3,9.3"/>
	<path class="st4" d="M11.3,26.5c2.4,0,4.8-1,6.4-2.5"/>
	<path class="st3" d="M33.2,26.5c5.3,0,9.6-4.3,9.6-9.6"/>
	<path class="st2" d="M33.2,7.2c-5.3,0-9.6,4.3-9.6,9.6"/>
	<path class="st4" d="M42.8,16.8c0-5.3-4.3-9.6-9.6-9.6"/>
	<line class="st4" x1="17.8" y1="17.3" x2="17.8" y2="23.8"/>
	<polyline class="st3" points="57.3,17.3 64.2,17.3 64.2,23.8 	"/>
	<path class="st2" d="M64.2,10.5c-1.7-1.7-4-2.7-6.5-2.7"/>
	<path class="st4" d="M48.3,17.2c0,5.1,4.2,9.3,9.3,9.3"/>
	<path class="st4" d="M57.6,26.5c2.4,0,4.8-1,6.4-2.5"/>
	<path class="st4" d="M147.5,7.6c2.4,0.1,4.8,1,5.8,1.8"/>
	<path class="st4" d="M154.2,21.9c-0.2-2.3-1.7-3.4-3.5-4.1c-1-0.4-2.1-0.6-3.3-0.9"/>
	<path class="st3" d="M140.8,24.3c2.2,1.5,4.8,2.3,6.8,2.4"/>
	<path class="st2" d="M147.4,16.9c-0.6-0.1-1.2-0.3-1.7-0.5c-2.4-0.8-3.9-2.2-3.8-4.6c0.1-2.9,2.6-4.2,5.1-4.2c0.1,0,0.3,0,0.4,0"/>
	<path class="st5" d="M147.5,16.9"/>
	<circle class="st6" cx="11.2" cy="26.5" r="2"/>
	<circle class="st7" cx="33.2" cy="7.2" r="2"/>
	<circle class="st8" cx="42.8" cy="16.8" r="2"/>
	<circle class="st8" cx="57.7" cy="26.5" r="2"/>
	<circle class="st8" cx="64.1" cy="24" r="2"/>
	<circle class="st9" cx="120.6" cy="20" r="2"/>
	<circle class="st10" cx="147.4" cy="7.6" r="2"/>
	<circle class="st10" cx="147.4" cy="16.9" r="2"/>
	<path class="st10" d="M91.7,6.9C91.7,6.8,91.7,6.8,91.7,6.9C91.6,6.8,91.6,6.8,91.7,6.9c-0.1-0.1-0.1-0.1-0.1-0.1c0,0,0,0,0,0
		c0,0,0,0-0.1,0c0,0,0,0,0,0c0,0,0,0-0.1,0c0,0,0,0,0,0c0,0,0,0-0.1,0c0,0,0,0,0,0c0,0,0,0-0.1,0c0,0,0,0,0,0c0,0,0,0-0.1,0
		c0,0,0,0,0,0c0,0,0,0-0.1,0c0,0,0,0,0,0c0,0,0,0,0,0c0,0,0,0-0.1,0c0,0,0,0,0,0c0,0,0,0-0.1,0c0,0,0,0,0,0c0,0,0,0-0.1,0
		c0,0,0,0,0,0c0,0,0,0-0.1,0c0,0,0,0,0,0c0,0,0,0-0.1,0c0,0,0,0,0,0c0,0,0,0-0.1,0c0,0,0,0,0,0c0,0,0,0-0.1,0c0,0,0,0,0,0
		c0,0,0,0,0,0c0,0,0,0-0.1,0c0,0,0,0,0,0c0,0-0.1,0-0.1,0c0,0,0,0,0,0c0,0-0.1,0-0.1,0c0,0,0,0,0,0c0,0-0.1,0-0.1,0c0,0,0,0,0,0
		c0,0,0,0-0.1,0c0,0,0,0,0,0c0,0,0,0,0,0c0,0,0,0-0.1,0c0,0,0,0,0,0c0,0,0,0,0,0c0,0,0,0,0,0c0,0,0,0,0,0c0,0,0,0,0,0c0,0,0,0,0,0
		c0,0,0,0,0,0c0,0,0,0-0.1,0c0,0,0,0,0,0c-0.1,0-0.1,0.1-0.2,0.1c0,0,0,0,0,0c0,0,0,0-0.1,0c0,0,0,0,0,0c0,0,0,0-0.1,0c0,0,0,0,0,0
		c0,0,0,0,0,0c0,0,0,0,0,0c0,0,0,0,0,0c0,0,0,0,0,0c0,0,0,0,0,0c0,0,0,0,0,0.1c0,0,0,0,0,0c0,0,0,0,0,0.1c0,0,0,0,0,0c0,0,0,0,0,0.1
		c0,0,0,0,0,0c0,0,0,0,0,0.1c0,0,0,0,0,0c0,0,0,0,0,0.1c0,0,0,0,0,0c0,0,0,0,0,0.1c0,0,0,0,0,0c0,0,0,0,0,0c0,0,0,0,0,0.1
		c0,0,0,0,0,0c0,0,0,0,0,0.1c0,0,0,0,0,0c0,0,0,0,0,0.1c0,0,0,0,0,0c0,0,0,0,0,0.1c0,0,0,0,0,0c0,0,0,0,0,0.1c0,0,0,0,0,0
		c0,0,0,0,0,0.1c0,0,0,0,0,0c0,0,0,0,0,0.1c0,0,0,0,0,0c0,0,0,0,0,0.1c0,0,0,0,0,0.1c0,0.5,0.1,0.9,0.5,1.3l3.5,4.2l0-5.5
		C92.2,7.7,92,7.3,91.7,6.9C91.7,6.9,91.7,6.9,91.7,6.9z"/>
	<path class="st8" d="M104,27.8C104,27.8,104,27.8,104,27.8C104,27.8,104,27.8,104,27.8c0.1,0.1,0.1,0.1,0.1,0.1c0,0,0,0,0,0
		c0,0,0,0,0.1,0c0,0,0,0,0,0c0,0,0,0,0.1,0c0,0,0,0,0,0c0,0,0,0,0.1,0c0,0,0,0,0,0c0,0,0,0,0.1,0c0,0,0,0,0,0c0,0,0,0,0.1,0
		c0,0,0,0,0,0c0,0,0,0,0.1,0c0,0,0,0,0,0c0,0,0,0,0,0c0,0,0,0,0.1,0c0,0,0,0,0,0c0,0,0,0,0.1,0c0,0,0,0,0,0c0,0,0,0,0.1,0
		c0,0,0,0,0,0c0,0,0,0,0.1,0c0,0,0,0,0,0c0,0,0,0,0.1,0c0,0,0,0,0,0c0,0,0,0,0.1,0c0,0,0,0,0,0c0,0,0,0,0.1,0c0,0,0,0,0,0
		c0,0,0,0,0,0c0,0,0,0,0.1,0c0,0,0,0,0,0c0,0,0.1,0,0.1,0c0,0,0,0,0,0c0,0,0.1,0,0.1,0c0,0,0,0,0,0c0,0,0.1,0,0.1,0c0,0,0,0,0,0
		c0,0,0,0,0.1,0c0,0,0,0,0,0c0,0,0,0,0,0c0,0,0,0,0.1,0c0,0,0,0,0,0c0,0,0,0,0,0c0,0,0,0,0,0c0,0,0,0,0,0c0,0,0,0,0,0c0,0,0,0,0,0
		c0,0,0,0,0,0c0,0,0,0,0.1,0c0,0,0,0,0,0c0.1,0,0.1-0.1,0.2-0.1c0,0,0,0,0,0c0,0,0,0,0.1,0c0,0,0,0,0,0c0,0,0,0,0.1,0c0,0,0,0,0,0
		c0,0,0,0,0,0c0,0,0,0,0,0c0,0,0,0,0,0c0,0,0,0,0,0c0,0,0,0,0,0c0,0,0,0,0-0.1c0,0,0,0,0,0c0,0,0,0,0-0.1c0,0,0,0,0,0c0,0,0,0,0-0.1
		c0,0,0,0,0,0c0,0,0,0,0-0.1c0,0,0,0,0,0c0,0,0,0,0-0.1c0,0,0,0,0,0c0,0,0,0,0-0.1c0,0,0,0,0,0c0,0,0,0,0,0c0,0,0,0,0-0.1
		c0,0,0,0,0,0c0,0,0,0,0-0.1c0,0,0,0,0,0c0,0,0,0,0-0.1c0,0,0,0,0,0c0,0,0,0,0-0.1c0,0,0,0,0,0c0,0,0,0,0-0.1c0,0,0,0,0,0
		c0,0,0,0,0-0.1c0,0,0,0,0,0c0,0,0,0,0-0.1c0,0,0,0,0,0c0,0,0,0,0-0.1c0,0,0,0,0-0.1c0-0.5-0.1-0.9-0.5-1.3l-3.5-4.2l0,5.5
		C103.5,26.9,103.6,27.4,104,27.8C104,27.8,104,27.8,104,27.8z"/>
	<text transform="matrix(1 0 0 1 155.1259 5.6622)" class="st11 st12 st13">®</text>
	<path class="st8" d="M16.4,22.5c-0.2,0.2-0.4,0.3-0.6,0.5v0.9c0,1.1,0.9,2,2,2c0.7,0,1.3-0.4,1.7-0.9c0.4-0.7,0.3-1.7-0.3-2.3
		C18.5,21.8,17.2,21.8,16.4,22.5z"/>
	<path class="st8" d="M17.8,19.3c1.1,0,2-0.9,2-2c0-0.5-0.2-1-0.6-1.4c-0.4-0.4-0.9-0.6-1.4-0.6c-1.1,0-2,0.9-2,2v2H17.8z"/>
</g>
</svg>
